<svg xmlns="http://www.w3.org/2000/svg" viewBox="0 0 512 512" width="512" height="512">
  <!-- Background -->
  <defs>
    <linearGradient id="gradient" x1="0%" y1="0%" x2="100%" y2="100%">
      <stop offset="0%" stop-color="#3B82F6" /> <!-- blue-500 -->
      <stop offset="100%" stop-color="#8B5CF6" /> <!-- purple-500 -->
    </linearGradient>
  </defs>
  
  <!-- Stacked document shapes representing structure -->
  <rect x="128" y="192" width="256" height="192" rx="16" fill="#8B5CF6" opacity="0.7" />
  <rect x="144" y="176" width="256" height="192" rx="16" fill="#6366F1" opacity="0.8" />
  <rect x="160" y="160" width="256" height="192" rx="16" fill="#3B82F6" opacity="0.9" />
  <rect x="176" y="144" width="256" height="192" rx="16" fill="white" />
  
  <!-- Stylized "I" for IdeaStruct -->
  <rect x="240" y="176" width="32" height="128" rx="4" fill="url(#gradient)" />
  
  <!-- Horizontal lines representing structure/content -->
  <rect x="288" y="176" width="112" height="8" rx="4" fill="#E2E8F0" />
  <rect x="288" y="200" width="96" height="8" rx="4" fill="#E2E8F0" />
  <rect x="288" y="224" width="112" height="8" rx="4" fill="#E2E8F0" />
  <rect x="288" y="248" width="80" height="8" rx="4" fill="#E2E8F0" />
  <rect x="288" y="272" width="112" height="8" rx="4" fill="#E2E8F0" />
  <rect x="288" y="296" width="96" height="8" rx="4" fill="#E2E8F0" />
</svg>
